<?xml version="1.0" encoding="UTF-8" standalone="no"?>
<svg
   id="mdi-rotate-orbit"
   viewBox="0 0 24 24"
   version="1.1"
   sodipodi:docname="ralv3.svg"
   xml:space="preserve"
   inkscape:version="1.4.2 (ebf0e940d0, 2025-05-08)"
   xmlns:inkscape="http://www.inkscape.org/namespaces/inkscape"
   xmlns:sodipodi="http://sodipodi.sourceforge.net/DTD/sodipodi-0.dtd"
   xmlns:xlink="http://www.w3.org/1999/xlink"
   xmlns="http://www.w3.org/2000/svg"
   xmlns:svg="http://www.w3.org/2000/svg"><defs
     id="defs1"><linearGradient
       id="linearGradient18"
       inkscape:collect="always"><stop
         style="stop-color:#fef7ff;stop-opacity:1;"
         offset="0"
         id="stop18" /><stop
         style="stop-color:#d0bcff;stop-opacity:1;"
         offset="1"
         id="stop19" /></linearGradient><linearGradient
       id="swatch12"
       inkscape:swatch="solid"><stop
         style="stop-color:#000000;stop-opacity:1;"
         offset="0"
         id="stop12" /></linearGradient><inkscape:path-effect
       effect="powerclip"
       message=""
       id="path-effect11"
       is_visible="true"
       lpeversion="1"
       inverse="true"
       flatten="false"
       hide_clip="false" /><clipPath
       clipPathUnits="userSpaceOnUse"
       id="clipPath11"><circle
         style="display:none;fill:#ff0000;fill-opacity:1;stroke-width:6.15585"
         id="circle11"
         cx="12.0028"
         cy="12.005979"
         r="9.3920078" /></clipPath><linearGradient
       inkscape:collect="always"
       xlink:href="#linearGradient18"
       id="linearGradient19"
       x1="-0.13258252"
       y1="0.044195432"
       x2="24.925514"
       y2="24.748739"
       gradientUnits="userSpaceOnUse"
       gradientTransform="matrix(0.99102772,0,0,0.99825945,0.13162294,-0.04390087)" /></defs><sodipodi:namedview
     id="namedview1"
     pagecolor="#ffffff"
     bordercolor="#000000"
     borderopacity="0.25"
     inkscape:showpageshadow="2"
     inkscape:pageopacity="0.0"
     inkscape:pagecheckerboard="0"
     inkscape:deskcolor="#d1d1d1"
     inkscape:zoom="8"
     inkscape:cx="-25.125"
     inkscape:cy="1.0625"
     inkscape:window-width="1707"
     inkscape:window-height="932"
     inkscape:window-x="0"
     inkscape:window-y="0"
     inkscape:window-maximized="1"
     inkscape:current-layer="mdi-rotate-orbit" /><rect
     style="display:none;fill:url(#linearGradient19);fill-opacity:1;stroke-width:0.994637"
     id="rect18"
     width="24.001112"
     height="23.999784"
     x="0.00022999942"
     y="0.00021640956"
     sodipodi:insensitive="true" /><rect
     style="display:inline;fill:#332d41;fill-opacity:1;stroke-width:0.994637;stroke:none;stroke-opacity:1"
     id="rect18-9"
     width="24.001112"
     height="23.999784"
     x="0.0052038138"
     y="0.016465995" /><path
     d="m 12.875587,4.2385453 c -0.562061,-0.2478285 -1.189113,-0.2478285 -1.751174,0 L 5.4637549,6.7344374 C 4.8551443,7.0028128 4.4560665,7.6525269 4.4560665,8.3750411 v 7.2500469 c 0,0.722514 0.3990891,1.37227 1.0077149,1.640603 l 5.6606696,2.495788 c 0.562061,0.247796 1.189037,0.247796 1.751098,0 l 5.660665,-2.495788 c 0.608646,-0.268333 1.007719,-0.918089 1.007719,-1.640603 V 8.3750411 c 0,-0.7225142 -0.399073,-1.3722283 -1.007681,-1.6406037 z"
     id="path1-7"
     sodipodi:nodetypes="cccssccccsscc"
     style="display:inline;fill:#ffffff;fill-opacity:1;stroke-width:0.39601"
     inkscape:label="path1-7" /><path
     d="M 9.62586,11.312163 V 8.7561024 l 0.884789,0.8847898 c 2.304388,-2.1077691 4.872247,-2.9925572 5.898604,-1.9662003 0.786481,0.7864806 0.444361,2.5206691 -0.747155,4.3256401 1.191516,1.804973 1.533636,3.539164 0.747155,4.325643 -0.719631,0.719632 -2.202146,0.495483 -3.814429,-0.432565 l 0.912315,-0.684238 c 0.967371,0.534808 1.757785,0.688173 2.115633,0.330324 0.416835,-0.416837 0.137637,-1.435329 -0.640981,-2.607185 -0.279193,0.342125 -0.589858,0.692107 -0.931975,1.034225 -2.390902,2.390902 -5.2065013,3.444786 -6.291844,2.359442 -0.7196304,-0.719629 -0.4954828,-2.202145 0.4325632,-3.81443 l 0.6842386,0.912318 c -0.5348079,0.967369 -0.6881715,1.757783 -0.3303228,2.115632 0.6527787,0.652778 2.764478,-0.405037 4.718883,-2.359442 0.39324,-0.39324 0.74716,-0.786477 1.061746,-1.179725 -0.314599,-0.393236 -0.668506,-0.786484 -1.061746,-1.179723 l -0.755025,-0.707829 0.904452,-0.6763727 0.637047,0.5977277 c 0.342119,0.342118 0.652781,0.6921 0.931978,1.034225 0.778616,-1.1718556 1.057815,-2.1903496 0.64098,-2.6071835 -0.605589,-0.6055901 -2.485278,0.2674032 -4.325642,1.9662015 l 0.88479,0.884791 H 9.6258529 m 1.7695801,3.145922 -2.5560607,-2e-6 0.8847914,-0.88479 C 7.6163946,11.26891 6.7316041,8.7010518 7.7579618,7.6746949 8.4775914,6.9550645 9.9601077,7.1792121 11.572393,8.1072591 L 10.660074,8.7914975 C 9.6927039,8.2566905 8.9022903,8.1033276 8.5444423,8.4611755 7.9388522,9.0667657 8.8118455,10.946454 10.510642,12.786817 l 0.884791,-0.88479 z"
     id="path1"
     style="display:inline;fill:#332d41;fill-opacity:1;stroke-width:0.556126"
     inkscape:label="orbit" /></svg>
