<?xml version="1.0" encoding="UTF-8" standalone="no"?>
<svg
   id="mdi-rotate-orbit"
   viewBox="0 0 512 512"
   version="1.1"
   sodipodi:docname="ralv7.svg"
   xml:space="preserve"
   inkscape:version="1.4.2 (ebf0e940d0, 2025-05-08)"
   width="512"
   height="512"
   xmlns:inkscape="http://www.inkscape.org/namespaces/inkscape"
   xmlns:sodipodi="http://sodipodi.sourceforge.net/DTD/sodipodi-0.dtd"
   xmlns:xlink="http://www.w3.org/1999/xlink"
   xmlns="http://www.w3.org/2000/svg"
   xmlns:svg="http://www.w3.org/2000/svg"><defs
     id="defs1"><linearGradient
       id="linearGradient1"
       inkscape:collect="always"><stop
         style="stop-color:#272d2c;stop-opacity:1;"
         offset="0"
         id="stop1" /><stop
         style="stop-color:#444746;stop-opacity:1;"
         offset="1"
         id="stop2" /></linearGradient><linearGradient
       id="linearGradient18"
       inkscape:collect="always"><stop
         style="stop-color:#474747;stop-opacity:1;"
         offset="0"
         id="stop18" /><stop
         style="stop-color:#1b1b1c;stop-opacity:1;"
         offset="1"
         id="stop19" /></linearGradient><linearGradient
       id="swatch12"
       inkscape:swatch="solid"><stop
         style="stop-color:#000000;stop-opacity:1;"
         offset="0"
         id="stop12" /></linearGradient><inkscape:path-effect
       effect="powerclip"
       message=""
       id="path-effect11"
       is_visible="true"
       lpeversion="1"
       inverse="true"
       flatten="false"
       hide_clip="false" /><clipPath
       clipPathUnits="userSpaceOnUse"
       id="clipPath11"><circle
         style="display:none;fill:#ff0000;fill-opacity:1;stroke-width:6.15585"
         id="circle11"
         cx="12.0028"
         cy="12.005979"
         r="9.3920078" /></clipPath><linearGradient
       inkscape:collect="always"
       xlink:href="#linearGradient18"
       id="linearGradient19"
       x1="-0.13258252"
       y1="0.044195432"
       x2="24.925514"
       y2="24.748739"
       gradientUnits="userSpaceOnUse"
       gradientTransform="matrix(21.140945,0,0,21.296393,2.8031495,-0.94096068)" /><linearGradient
       inkscape:collect="always"
       xlink:href="#linearGradient1"
       id="linearGradient2"
       x1="329.39447"
       y1="327.66895"
       x2="-6.9477849"
       y2="-3.6733248"
       gradientUnits="userSpaceOnUse" /></defs><sodipodi:namedview
     id="namedview1"
     pagecolor="#ffffff"
     bordercolor="#000000"
     borderopacity="0.25"
     inkscape:showpageshadow="2"
     inkscape:pageopacity="0.0"
     inkscape:pagecheckerboard="0"
     inkscape:deskcolor="#d1d1d1"
     inkscape:zoom="0.70710678"
     inkscape:cx="115.25841"
     inkscape:cy="222.73864"
     inkscape:window-width="1707"
     inkscape:window-height="932"
     inkscape:window-x="0"
     inkscape:window-y="0"
     inkscape:window-maximized="1"
     inkscape:current-layer="mdi-rotate-orbit" /><rect
     style="display:inline;fill:url(#linearGradient19);fill-opacity:1;stroke-width:21.2185"
     id="rect18"
     width="512"
     height="512"
     x="0.00022999942"
     y="0.00021640956" /><path
     d="m 274.66179,90.418711 c -11.99008,-5.287055 -25.36657,-5.287055 -37.35665,0 L 116.55003,143.66489 c -12.98309,5.72539 -21.496359,19.58608 -21.496359,34.99986 V 333.3338 c 0,15.41377 8.513509,29.27536 21.496919,34.99985 l 120.75536,53.24395 c 11.99008,5.28637 25.36495,5.28637 37.35503,0 l 120.75525,-53.24395 c 12.98385,-5.72449 21.49701,-19.58608 21.49701,-34.99985 V 178.66475 c 0,-15.41378 -8.51316,-29.27447 -21.49619,-34.99986 z"
     id="path1-7"
     sodipodi:nodetypes="cccssccccsscc"
     style="display:inline;fill:#ffffff;fill-opacity:1;stroke-width:8.44806"
     inkscape:label="path1-7" /><path
     d="m 205.33749,241.32391 v -54.52978 l 18.87462,18.87568 c 49.158,-44.96614 103.93646,-63.84179 125.83106,-41.94598 16.77748,16.7784 9.47926,53.77476 -15.93857,92.28115 25.41783,38.50644 32.71605,75.50284 15.93857,92.28121 -15.35142,15.35229 -46.97694,10.5704 -81.37072,-9.22813 l 19.46182,-14.59721 c 20.63629,11.40934 37.49768,14.68116 45.13141,7.04697 8.89207,-8.8926 2.93612,-30.62062 -13.67362,-55.62044 -5.95584,7.29873 -12.58306,14.76508 -19.88122,22.06366 -51.00354,51.00637 -111.06688,73.48943 -134.21978,50.33522 -15.35141,-15.35223 -10.56981,-46.97952 9.22759,-81.37524 l 14.59641,19.46296 c -11.40871,20.63739 -14.68031,37.49971 -7.04656,45.13389 13.9253,13.92605 58.9728,-8.64087 100.66484,-50.33522 8.38873,-8.38919 15.93867,-16.77832 22.64953,-25.16769 -6.71113,-8.38911 -14.2608,-16.77848 -22.64953,-25.16765 l -16.10645,-15.10049 19.29408,-14.42941 13.5897,12.75164 c 7.2982,7.29858 13.92535,14.76493 19.88128,22.06366 16.60971,-24.99981 22.56567,-46.72788 13.67361,-55.62041 -12.91864,-12.91937 -53.01681,5.70465 -92.27609,41.94601 l 18.87465,18.87571 h -54.52678 m 37.74929,67.1136 -54.52677,-4e-5 18.87468,-18.87569 c -44.96366,-49.16072 -63.83832,-103.94218 -41.9437,-125.838 15.35139,-15.35225 46.97694,-10.57039 81.37076,9.22812 l -19.4619,14.59722 c -20.63627,-11.40932 -37.49765,-14.68109 -45.13139,-7.04693 -12.91865,12.91937 5.70434,53.01975 41.94365,92.28118 l 18.87467,-18.87569 z"
     id="path1"
     style="display:inline;fill:url(#linearGradient2);fill-opacity:1;stroke-width:11.8638"
     inkscape:label="orbit" /></svg>
