<?xml version="1.0" encoding="UTF-8" standalone="no"?>
<svg
   id="mdi-rotate-orbit"
   viewBox="0 0 24 24"
   version="1.1"
   sodipodi:docname="ralv2.svg"
   xml:space="preserve"
   inkscape:version="1.4.2 (ebf0e940d0, 2025-05-08)"
   xmlns:inkscape="http://www.inkscape.org/namespaces/inkscape"
   xmlns:sodipodi="http://sodipodi.sourceforge.net/DTD/sodipodi-0.dtd"
   xmlns:xlink="http://www.w3.org/1999/xlink"
   xmlns="http://www.w3.org/2000/svg"
   xmlns:svg="http://www.w3.org/2000/svg"><defs
     id="defs1"><linearGradient
       id="linearGradient18"
       inkscape:collect="always"><stop
         style="stop-color:#fef7ff;stop-opacity:1;"
         offset="0"
         id="stop18" /><stop
         style="stop-color:#d0bcff;stop-opacity:1;"
         offset="1"
         id="stop19" /></linearGradient><linearGradient
       id="swatch12"
       inkscape:swatch="solid"><stop
         style="stop-color:#000000;stop-opacity:1;"
         offset="0"
         id="stop12" /></linearGradient><inkscape:path-effect
       effect="powerclip"
       message=""
       id="path-effect11"
       is_visible="true"
       lpeversion="1"
       inverse="true"
       flatten="false"
       hide_clip="false" /><clipPath
       clipPathUnits="userSpaceOnUse"
       id="clipPath11"><circle
         style="display:none;fill:#ff0000;fill-opacity:1;stroke-width:6.15585"
         id="circle11"
         cx="12.0028"
         cy="12.005979"
         r="9.3920078" /></clipPath><linearGradient
       inkscape:collect="always"
       xlink:href="#linearGradient18"
       id="linearGradient19"
       x1="-0.13258252"
       y1="0.044195432"
       x2="24.925514"
       y2="24.748739"
       gradientUnits="userSpaceOnUse"
       gradientTransform="matrix(0.99102772,0,0,0.99825945,0.13162294,-0.04390087)" /></defs><sodipodi:namedview
     id="namedview1"
     pagecolor="#ffffff"
     bordercolor="#000000"
     borderopacity="0.25"
     inkscape:showpageshadow="2"
     inkscape:pageopacity="0.0"
     inkscape:pagecheckerboard="0"
     inkscape:deskcolor="#d1d1d1"
     inkscape:zoom="22.627417"
     inkscape:cx="10.297242"
     inkscape:cy="10.31934"
     inkscape:window-width="1707"
     inkscape:window-height="932"
     inkscape:window-x="0"
     inkscape:window-y="0"
     inkscape:window-maximized="1"
     inkscape:current-layer="mdi-rotate-orbit" /><rect
     style="display:none;fill:url(#linearGradient19);fill-opacity:1;stroke-width:0.994637"
     id="rect18"
     width="24.001112"
     height="23.999784"
     x="0.00022999942"
     y="0.00021640956"
     sodipodi:insensitive="true" /><rect
     style="display:inline;fill:#332d41;fill-opacity:1;stroke-width:0.994637;stroke:none;stroke-opacity:1"
     id="rect18-9"
     width="24.001112"
     height="23.999784"
     x="0.0052038138"
     y="0.016465995" /><path
     d="m 13.006418,3.0788184 c -0.646045,-0.2848593 -1.366791,-0.2848593 -2.012836,0 L 4.4871005,5.9476501 C 3.7875505,6.2561265 3.3288419,7.0029217 3.3288419,7.8333949 v 8.3333581 c 0,0.830473 0.4587216,1.577317 1.158289,1.885745 l 6.5064941,2.868712 c 0.646045,0.284821 1.366705,0.284821 2.01275,0 l 6.506489,-2.868712 c 0.69959,-0.308428 1.158294,-1.055272 1.158294,-1.885745 V 7.8333949 c 0,-0.8304732 -0.458704,-1.5772684 -1.15825,-1.8857448 z"
     id="path1-7"
     sodipodi:nodetypes="cccssccccsscc"
     style="display:inline;fill:#ffffff;fill-opacity:1;stroke-width:0.455182"
     inkscape:label="path1-7" /><path
     d="M 9.2711128,11.209386 V 8.2713949 l 1.0169952,1.0169963 c 2.648713,-2.4227147 5.600265,-3.4397091 6.779982,-2.2599926 0.903997,0.9039976 0.510758,2.897311 -0.858797,4.9719834 1.369555,2.074674 1.762794,4.06799 0.858797,4.971986 -0.82716,0.82716 -2.531194,0.569519 -4.384387,-0.497199 l 1.048635,-0.786478 c 1.111917,0.614719 2.020435,0.791 2.431753,0.379681 0.47912,-0.479121 0.158203,-1.649797 -0.736757,-2.996754 -0.32091,0.393246 -0.677995,0.795523 -1.071232,1.188761 -2.748154,2.748153 -5.9844634,3.95951 -7.2319795,2.711992 C 6.296964,16.145214 6.554604,14.441179 7.6213199,12.587984 l 0.7864784,1.048638 c -0.6147196,1.111915 -0.7909989,2.020433 -0.37968,2.431753 0.7503177,0.750317 3.1775497,-0.465559 5.4239847,-2.711993 0.451999,-0.451999 0.858802,-0.903994 1.220393,-1.356001 -0.361606,-0.451994 -0.768394,-0.904002 -1.220393,-1.355999 l -0.867842,-0.8135943 1.039597,-0.7774369 0.732235,0.6870405 c 0.393239,0.3932387 0.750321,0.7955147 1.071235,1.1887607 0.894958,-1.3469558 1.215875,-2.5176346 0.736757,-2.9967523 -0.696077,-0.6960782 -2.856632,0.3073589 -4.971986,2.2599943 l 1.016997,1.016997 H 9.2711047 m 2.0339933,3.61599 -2.9379909,-2e-6 1.0169981,-1.016997 C 6.9613905,11.15967 5.9443934,8.2081186 7.1241108,7.0284021 7.9512684,6.2012436 9.6553043,6.4588836 11.508499,7.5256006 L 10.459861,8.3120788 C 9.3479447,7.6973602 8.4394264,7.5210817 8.0281083,7.9323997 7.3320301,8.628478 8.3354672,10.789032 10.2881,12.904384 l 1.016998,-1.016996 z"
     id="path1"
     style="display:inline;fill:#332d41;fill-opacity:1;stroke-width:0.639223"
     inkscape:label="orbit" /></svg>
